<?xml version="1.0" encoding="utf-8"?>
<!-- Generator: Adobe Illustrator 23.0.2, SVG Export Plug-In . SVG Version: 6.00 Build 0)  -->
<svg version="1.1" id="Layer_1" xmlns="http://www.w3.org/2000/svg" xmlns:xlink="http://www.w3.org/1999/xlink" x="0px" y="0px"
	 viewBox="0 0 136 93" style="enable-background:new 0 0 136 93;" xml:space="preserve">
<style type="text/css">
	.st0{fill:none;}
	.st1{stroke:#000000;stroke-width:6;stroke-miterlimit:10;}
</style>
<rect class="st0" width="136" height="93"/>
<path class="st1" d="M107.8,86.4c6.8,0,11.4-1.7,14-5c1.4-1.7,2.1-3.7,2.1-5.8c0-5.2-3.6-10.9-10.8-17c-2.3-2-4.6-3-6.7-3
	c-0.5,0-0.8,0.1-0.8,0.3c0,0.5,0.8,1.1,2.5,1.8c2.9,1.3,5.3,3.7,7.4,7.1c2.1,3.5,3.2,6.9,3.2,10.1c0,5.8-4.3,8.8-12.8,8.8
	c-5.3,0-10-0.9-14-2.6c-9-3.8-16.1-8.6-21.5-14.6c-4.7-5.1-7-10-7-14.7c0-5.7,3.2-8.6,9.6-8.6c10.2,0,17.7-1.4,22.7-4.1
	c4.1-2.2,6.1-5.2,6.1-8.9c0-6.4-4.4-11.6-13.3-15.8c-7.2-3.5-14.1-5.3-20.7-5.3c-5.3,0-9.6,1.2-12.6,3.6c-0.8,0.5-1.2,1.2-1.2,2.2
	c0,1.4,0.8,2.8,2.4,4.2c1.5,1.4,2.7,2.1,3.4,1.9c0.1,0-0.1-0.5-0.7-1.4c-0.9-1.2-1.3-2.2-1.3-3.1c0-0.9,0.3-1.6,0.9-2.3
	c1.8-2.1,5.1-3.1,9.9-3.1c5.3,0,10.8,1.3,16.4,3.8c5.9,2.7,9.5,6,10.7,9.6c0.7,1.9,1,3.6,1,5.1c0,6.4-8.3,9.6-25,9.6
	c-10,0-15,3.2-15,9.7c0,5.5,3.2,11.7,9.7,18.7c6.6,7,13.8,11.9,21.5,14.8C94.9,85.1,101.5,86.4,107.8,86.4z"/>
<path class="st1" d="M23.6,86.4c-7.4,0-12.6-1.7-15.5-5.1c-1.5-1.8-2.3-3.8-2.3-6c0-5.3,4-11.1,11.9-17.4c2.6-2.1,5-3.1,7.4-3.1
	c0.6,0,0.9,0.1,0.9,0.3c0,0.5-0.9,1.1-2.8,1.9c-3.2,1.3-5.9,3.8-8.2,7.3c-2.4,3.6-3.5,7-3.5,10.3c0,6,4.7,9,14.2,9
	c5.8,0,11-0.9,15.5-2.7C51.1,77.1,59,72.1,64.9,66c5.2-5.2,7.7-10.2,7.7-15c0-5.8-3.5-8.7-10.6-8.7c-11.2,0-19.5-1.4-25-4.2
	c-4.5-2.3-6.7-5.3-6.7-9.1c0-6.5,4.9-11.9,14.7-16.1c8-3.6,15.6-5.4,22.8-5.4c5.9,0,10.5,1.2,13.9,3.6c0.9,0.5,1.3,1.3,1.3,2.2
	c0,1.4-0.9,2.8-2.7,4.3c-1.7,1.5-2.9,2.1-3.8,2c-0.1,0,0.1-0.5,0.8-1.4c1-1.2,1.4-2.2,1.4-3.2c0-0.9-0.3-1.7-1-2.3
	c-2-2.1-5.6-3.2-10.9-3.2c-5.9,0-11.9,1.3-18.1,3.9c-6.5,2.8-10.4,6.1-11.8,9.8c-0.7,1.9-1.1,3.6-1.1,5.2c0,6.6,9.2,9.8,27.5,9.8
	c11.1,0,16.6,3.3,16.6,9.9c0,5.6-3.6,12-10.7,19.1C61.9,74.4,54,79.4,45.5,82.4C37.9,85,30.6,86.4,23.6,86.4z"/>
</svg>
