<?xml version="1.0" encoding="utf-8"?>
<!-- Generator: Adobe Illustrator 23.0.2, SVG Export Plug-In . SVG Version: 6.00 Build 0)  -->
<svg version="1.1" id="Layer_1" xmlns="http://www.w3.org/2000/svg" xmlns:xlink="http://www.w3.org/1999/xlink" x="0px" y="0px"
	 viewBox="0 0 136 93" style="enable-background:new 0 0 136 93;" xml:space="preserve">
<style type="text/css">
	.st0{fill:none;}
	.st1{fill:#FFFFFF;}
</style>
<rect class="st0" width="136" height="93"/>
<path class="st1" d="M115.3,92.2c8.6,0,14.6-2,17.9-5.9c1.8-2,2.7-4.4,2.7-6.9c0-6.1-4.6-12.8-13.8-20.1c-3-2.4-5.8-3.6-8.6-3.6
	c-0.7,0-1,0.1-1,0.4c0,0.6,1.1,1.3,3.2,2.2c3.7,1.5,6.8,4.4,9.5,8.4c2.7,4.2,4.1,8.1,4.1,11.9c0,6.9-5.5,10.4-16.4,10.4
	c-6.7,0-12.7-1-17.9-3.1c-11.4-4.4-20.6-10.2-27.4-17.3c-6-6.1-9-11.9-9-17.4c0-6.7,4.1-10.1,12.3-10.1c13,0,22.6-1.6,28.9-4.9
	c5.2-2.6,7.8-6.1,7.8-10.5c0-7.5-5.7-13.7-17-18.7c-9.2-4.2-18-6.3-26.4-6.3c-6.8,0-12.2,1.4-16.1,4.2c-1,0.6-1.5,1.5-1.5,2.6
	c0,1.6,1,3.3,3.1,5c2,1.7,3.4,2.5,4.4,2.3c0.2,0-0.1-0.6-0.9-1.7c-1.1-1.4-1.7-2.6-1.7-3.7c0-1,0.4-1.9,1.2-2.7
	c2.3-2.5,6.5-3.7,12.7-3.7c6.8,0,13.8,1.5,21,4.5c7.5,3.2,12.1,7,13.7,11.4c0.9,2.2,1.3,4.2,1.3,6c0,7.6-10.6,11.4-31.9,11.4
	c-12.8,0-19.2,3.8-19.2,11.5c0,6.5,4.1,13.9,12.4,22.1C71,78.4,80.2,84.2,90,87.6C98.8,90.7,107.2,92.2,115.3,92.2z"/>
<path class="st1" d="M20.7,92.2c-8.6,0-14.6-2-17.9-5.9c-1.8-2-2.7-4.4-2.7-6.9c0-6.1,4.6-12.8,13.8-20.1c3-2.4,5.8-3.6,8.6-3.6
	c0.7,0,1,0.1,1,0.4c0,0.6-1.1,1.3-3.2,2.2c-3.7,1.5-6.8,4.4-9.5,8.4c-2.7,4.2-4.1,8.1-4.1,11.9c0,6.9,5.5,10.4,16.4,10.4
	c6.7,0,12.7-1,17.9-3.1c11.4-4.4,20.6-10.2,27.4-17.3c6-6.1,9-11.9,9-17.4c0-6.7-4.1-10.1-12.3-10.1c-13,0-22.6-1.6-28.9-4.9
	c-5.2-2.6-7.8-6.1-7.8-10.5c0-7.5,5.7-13.7,17-18.7c9.2-4.2,18-6.3,26.4-6.3c6.8,0,12.2,1.4,16.1,4.2c1,0.6,1.5,1.5,1.5,2.6
	c0,1.6-1,3.3-3.1,5c-2,1.7-3.4,2.5-4.4,2.3c-0.2,0,0.1-0.6,0.9-1.7c1.1-1.4,1.7-2.6,1.7-3.7c0-1-0.4-1.9-1.2-2.7
	c-2.3-2.5-6.5-3.7-12.7-3.7c-6.8,0-13.8,1.5-21,4.5c-7.5,3.2-12.1,7-13.7,11.4c-0.9,2.2-1.3,4.2-1.3,6c0,7.6,10.6,11.4,31.9,11.4
	c12.8,0,19.2,3.8,19.2,11.5c0,6.5-4.1,13.9-12.4,22.1C65,78.4,55.8,84.2,46,87.6C37.2,90.7,28.8,92.2,20.7,92.2z"/>
</svg>
