<svg width="491" height="363" viewBox="0 0 491 363" fill="none" xmlns="http://www.w3.org/2000/svg">
<g clip-path="url(#clip0_12913_75514)">
<g filter="url(#filter0_b_12913_75514)">
<path d="M0 8.01953C0 3.60125 3.58172 0.0195312 8 0.0195312H146V362.02H8C3.58173 362.02 0 358.438 0 354.02V8.01953Z" fill="#F3F4F6"/>
<circle cx="16.5" cy="16.5195" r="4.5" fill="#E02424"/>
<circle cx="32.5" cy="16.5195" r="4.5" fill="#FACA15"/>
<circle cx="48.5" cy="16.5195" r="4.5" fill="#0E9F6E"/>
<rect width="146" height="30" transform="translate(0 33.0195)" fill="#E5E7EB"/>
<path d="M13.3984 45.2193C13.3984 44.848 13.5459 44.4919 13.8085 44.2294C14.071 43.9668 14.4271 43.8193 14.7984 43.8193H18.2984L19.6984 45.2193H23.1984C23.5697 45.2193 23.9258 45.3668 24.1884 45.6294C24.4509 45.8919 24.5984 46.248 24.5984 46.6193V50.8193C24.5984 51.1906 24.4509 51.5467 24.1884 51.8093C23.9258 52.0718 23.5697 52.2193 23.1984 52.2193H14.7984C14.4271 52.2193 14.071 52.0718 13.8085 51.8093C13.5459 51.5467 13.3984 51.1906 13.3984 50.8193V45.2193Z" fill="#6B7280"/>
<path d="M49.6687 43.5841C49.3921 43.3006 49.0564 43.1588 48.6614 43.1588C48.2666 43.1588 47.9309 43.3005 47.6544 43.5841C47.378 43.8677 47.2398 44.2119 47.2398 44.6171C47.2398 44.8804 47.3037 45.1248 47.4321 45.3501C47.5605 45.5754 47.7331 45.7514 47.9505 45.8779C47.9505 46.1412 47.9296 46.373 47.8877 46.573C47.8457 46.773 47.7766 46.9488 47.6804 47.1009C47.5839 47.2528 47.4841 47.3818 47.3804 47.4882C47.2766 47.5946 47.1309 47.6945 46.9434 47.7883C46.7558 47.8819 46.5816 47.9603 46.4212 48.0237C46.2608 48.0869 46.0448 48.1616 45.7732 48.2477C45.2795 48.4048 44.8994 48.5489 44.6328 48.6807V44.9056C44.85 44.7791 45.0228 44.6031 45.1512 44.3778C45.2795 44.1525 45.3437 43.9081 45.3437 43.6448C45.3437 43.2398 45.2055 42.8954 44.929 42.6119C44.6526 42.3284 44.3169 42.1865 43.9219 42.1865C43.5269 42.1865 43.1912 42.3283 42.9147 42.6119C42.6383 42.8954 42.5 43.2398 42.5 43.6448C42.5 43.9081 42.5642 44.1525 42.6925 44.3778C42.8208 44.6031 42.9936 44.7791 43.2109 44.9056V51.1341C42.9936 51.2605 42.8208 51.4367 42.6925 51.662C42.5642 51.8874 42.5 52.1317 42.5 52.395C42.5 52.8 42.6382 53.1444 42.9147 53.4278C43.1912 53.7113 43.5269 53.8532 43.9219 53.8532C44.3168 53.8532 44.6526 53.7113 44.929 53.4278C45.2054 53.1444 45.3437 52.8 45.3437 52.395C45.3437 52.1317 45.2795 51.8874 45.1512 51.662C45.0228 51.4367 44.85 51.2605 44.6328 51.1341V50.9366C44.6328 50.5873 44.7352 50.3342 44.9401 50.1772C45.1449 50.0201 45.5634 49.8404 46.1954 49.6379C46.862 49.4201 47.3631 49.2149 47.6988 49.0224C48.8047 48.3795 49.3626 47.3312 49.3724 45.8779C49.5898 45.7514 49.7625 45.5754 49.8908 45.35C50.0191 45.1247 50.0833 44.8804 50.0833 44.6171C50.0834 44.212 49.9451 43.8677 49.6687 43.5841ZM44.4256 52.9116C44.2873 53.0535 44.1194 53.1243 43.922 53.1243C43.7244 53.1243 43.5566 53.0535 43.4184 52.9116C43.2802 52.77 43.211 52.5977 43.211 52.3952C43.211 52.1926 43.2801 52.0205 43.4184 51.8787C43.5566 51.7369 43.7244 51.666 43.922 51.666C44.1194 51.666 44.2873 51.737 44.4256 51.8787C44.5638 52.0205 44.6329 52.1926 44.6329 52.3952C44.6329 52.5977 44.5638 52.77 44.4256 52.9116ZM44.4256 44.1614C44.2873 44.3032 44.1194 44.3741 43.922 44.3741C43.7244 44.3741 43.5566 44.3032 43.4184 44.1614C43.2802 44.0196 43.211 43.8475 43.211 43.6449C43.211 43.4423 43.2801 43.2701 43.4184 43.1285C43.5566 42.9867 43.7244 42.9158 43.922 42.9158C44.1194 42.9158 44.2873 42.9867 44.4256 43.1285C44.5638 43.2701 44.6329 43.4423 44.6329 43.6449C44.6329 43.8475 44.5638 44.0197 44.4256 44.1614ZM49.1651 45.1337C49.0269 45.2754 48.8591 45.3463 48.6616 45.3463C48.464 45.3463 48.2961 45.2754 48.158 45.1337C48.0198 44.992 47.9507 44.8198 47.9507 44.6172C47.9507 44.4146 48.0198 44.2425 48.158 44.1007C48.2962 43.9589 48.464 43.8881 48.6616 43.8881C48.8591 43.8881 49.0269 43.9589 49.1651 44.1007C49.3033 44.2424 49.3724 44.4146 49.3724 44.6172C49.3724 44.8198 49.3034 44.992 49.1651 45.1337Z" fill="#6B7280"/>
<path d="M75.0417 49.1862H74.5808L74.4175 49.0287C74.9892 48.3637 75.3333 47.5004 75.3333 46.5612C75.3333 44.467 73.6358 42.7695 71.5417 42.7695C69.4475 42.7695 67.75 44.467 67.75 46.5612C67.75 48.6554 69.4475 50.3529 71.5417 50.3529C72.4808 50.3529 73.3442 50.0087 74.0092 49.437L74.1667 49.6004V50.0612L77.0833 52.972L77.9525 52.1029L75.0417 49.1862ZM71.5417 49.1862C70.0892 49.1862 68.9167 48.0137 68.9167 46.5612C68.9167 45.1087 70.0892 43.9362 71.5417 43.9362C72.9942 43.9362 74.1667 45.1087 74.1667 46.5612C74.1667 48.0137 72.9942 49.1862 71.5417 49.1862Z" fill="#6B7280"/>
<path d="M100.583 48.6034V53.27H105.25V48.6034H100.583ZM94.75 53.27H99.4167V48.6034H94.75V53.27ZM94.75 42.77V47.4367H99.4167V42.77H94.75ZM102.718 42.0059L99.4167 45.3017L102.718 48.6034L106.02 45.3017L102.718 42.0059Z" fill="#6B7280"/>
<path d="M131.163 48.5673C131.186 48.3923 131.198 48.2114 131.198 48.0189C131.198 47.8323 131.186 47.6456 131.157 47.4706L132.341 46.5489C132.446 46.4673 132.475 46.3098 132.411 46.1931L131.291 44.2564C131.221 44.1281 131.075 44.0873 130.947 44.1281L129.553 44.6881C129.261 44.4664 128.952 44.2798 128.608 44.1398L128.398 42.6581C128.375 42.5181 128.258 42.4189 128.118 42.4189H125.878C125.738 42.4189 125.627 42.5181 125.604 42.6581L125.394 44.1398C125.05 44.2798 124.735 44.4723 124.449 44.6881L123.055 44.1281C122.926 44.0814 122.78 44.1281 122.71 44.2564L121.596 46.1931C121.526 46.3156 121.55 46.4673 121.666 46.5489L122.85 47.4706C122.821 47.6456 122.798 47.8381 122.798 48.0189C122.798 48.1998 122.81 48.3923 122.839 48.5673L121.655 49.4889C121.55 49.5706 121.52 49.7281 121.585 49.8448L122.705 51.7814C122.775 51.9098 122.92 51.9506 123.049 51.9098L124.443 51.3498C124.735 51.5714 125.044 51.7581 125.388 51.8981L125.598 53.3798C125.627 53.5198 125.738 53.6189 125.878 53.6189H128.118C128.258 53.6189 128.375 53.5198 128.392 53.3798L128.602 51.8981C128.946 51.7581 129.261 51.5714 129.547 51.3498L130.941 51.9098C131.07 51.9564 131.215 51.9098 131.285 51.7814L132.405 49.8448C132.475 49.7164 132.446 49.5706 132.335 49.4889L131.163 48.5673ZM126.998 50.1189C125.843 50.1189 124.898 49.1739 124.898 48.0189C124.898 46.8639 125.843 45.9189 126.998 45.9189C128.153 45.9189 129.098 46.8639 129.098 48.0189C129.098 49.1739 128.153 50.1189 126.998 50.1189Z" fill="#6B7280"/>
<rect x="12" y="75.0195" width="8" height="8" rx="2" fill="#9CA3AF"/>
<rect x="34" y="75.0195" width="81" height="8" rx="2" fill="#9CA3AF"/>
<rect x="12" y="97.0195" width="8" height="8" rx="2" fill="#9CA3AF"/>
<rect x="34" y="97.0195" width="46" height="8" rx="2" fill="#9CA3AF"/>
<rect x="12" y="119.02" width="8" height="8" rx="2" fill="#9CA3AF"/>
<rect x="34" y="119.02" width="81" height="8" rx="2" fill="#9CA3AF"/>
<rect x="12" y="141.02" width="8" height="8" rx="2" fill="#9CA3AF"/>
<rect x="34" y="141.02" width="60" height="8" rx="2" fill="#9CA3AF"/>
<rect x="12" y="163.02" width="8" height="8" rx="2" fill="#9CA3AF"/>
<rect x="34" y="163.02" width="72" height="8" rx="2" fill="#9CA3AF"/>
<rect x="12" y="185.02" width="8" height="8" rx="2" fill="#9CA3AF"/>
<rect x="34" y="185.02" width="34" height="8" rx="2" fill="#9CA3AF"/>
<rect x="12" y="207.02" width="8" height="8" rx="2" fill="#9CA3AF"/>
<rect x="34" y="207.02" width="69" height="8" rx="2" fill="#9CA3AF"/>
<rect x="12" y="229.02" width="8" height="8" rx="2" fill="#9CA3AF"/>
<rect x="34" y="229.02" width="81" height="8" rx="2" fill="#9CA3AF"/>
<rect x="12" y="251.02" width="8" height="8" rx="2" fill="#9CA3AF"/>
<rect x="34" y="251.02" width="81" height="8" rx="2" fill="#9CA3AF"/>
<rect x="12" y="273.02" width="8" height="8" rx="2" fill="#9CA3AF"/>
<rect x="34" y="273.02" width="68" height="8" rx="2" fill="#9CA3AF"/>
<rect x="12" y="295.02" width="8" height="8" rx="2" fill="#9CA3AF"/>
<rect x="34" y="295.02" width="52" height="8" rx="2" fill="#9CA3AF"/>
</g>
<path d="M146 0.0195312H483C487.418 0.0195312 491 3.60125 491 8.01953V354.02C491 358.438 487.418 362.02 483 362.02H146V0.0195312Z" fill="#F9FAFB"/>
<path d="M146 0.0195312H483C487.418 0.0195312 491 3.60125 491 8.01953V30.0195H146V0.0195312Z" fill="#F3F4F6"/>
<rect width="162" height="30" transform="translate(146 0.0195312)" fill="#E5E7EB"/>
<path d="M166.5 7.51953C165.675 7.51953 165.008 8.19453 165.008 9.01953L165 21.0195C165 21.8445 165.667 22.5195 166.492 22.5195H175.5C176.325 22.5195 177 21.8445 177 21.0195V12.0195L172.5 7.51953H166.5ZM171.75 12.7695V8.64453L175.875 12.7695H171.75Z" fill="#6B7280"/>
<rect x="184" y="12.0195" width="108" height="6" rx="2" fill="#6B7280"/>
<path d="M328.5 7.51953C327.675 7.51953 327.008 8.19453 327.008 9.01953L327 21.0195C327 21.8445 327.667 22.5195 328.492 22.5195H337.5C338.325 22.5195 339 21.8445 339 21.0195V12.0195L334.5 7.51953H328.5ZM333.75 12.7695V8.64453L337.875 12.7695H333.75Z" fill="#9CA3AF"/>
<rect x="346" y="12.0195" width="108" height="6" rx="2" fill="#9CA3AF"/>
<g clip-path="url(#clip1_12913_75514)">
<rect x="159" y="64.0195" width="124" height="8" rx="2" fill="#9CA3AF"/>
<rect x="293" y="64.0195" width="22" height="8" rx="2" fill="#9CA3AF"/>
<rect x="325" y="64.0195" width="135" height="8" rx="2" fill="#9CA3AF"/>
</g>
<g clip-path="url(#clip2_12913_75514)">
<rect x="159" y="84.0195" width="68" height="8" rx="2" fill="#9CA3AF"/>
<rect x="237" y="84.0195" width="126" height="8" rx="2" fill="#9CA3AF"/>
<rect x="373" y="84.0195" width="68" height="8" rx="2" fill="#9CA3AF"/>
<rect x="451" y="84.0195" width="31" height="8" rx="2" fill="#9CA3AF"/>
</g>
<g clip-path="url(#clip3_12913_75514)">
<rect x="159" y="104.02" width="84" height="8" rx="2" fill="#9CA3AF"/>
<rect x="253" y="104.02" width="27" height="8" rx="2" fill="#9CA3AF"/>
<rect x="290" y="104.02" width="128" height="8" rx="2" fill="#9CA3AF"/>
<rect x="428" y="104.02" width="42" height="8" rx="2" fill="#9CA3AF"/>
</g>
<g clip-path="url(#clip4_12913_75514)">
<rect x="159" y="124.02" width="124" height="8" rx="2" fill="#9CA3AF"/>
<rect x="293" y="124.02" width="92" height="8" rx="2" fill="#9CA3AF"/>
<rect x="395" y="124.02" width="78" height="8" rx="2" fill="#9CA3AF"/>
</g>
<g clip-path="url(#clip5_12913_75514)">
<rect x="159" y="144.02" width="29" height="8" rx="2" fill="#9CA3AF"/>
<rect x="198" y="144.02" width="140" height="8" rx="2" fill="#9CA3AF"/>
<rect x="348" y="144.02" width="132" height="8" rx="2" fill="#9CA3AF"/>
</g>
<g clip-path="url(#clip6_12913_75514)">
<rect x="159" y="164.02" width="79" height="8" rx="2" fill="#9CA3AF"/>
<rect x="248" y="164.02" width="158" height="8" rx="2" fill="#9CA3AF"/>
<rect x="416" y="164.02" width="32" height="8" rx="2" fill="#9CA3AF"/>
</g>
<g clip-path="url(#clip7_12913_75514)">
<rect x="159" y="184.02" width="124" height="8" rx="2" fill="#9CA3AF"/>
<rect x="293" y="184.02" width="37" height="8" rx="2" fill="#9CA3AF"/>
<rect x="340" y="184.02" width="135" height="8" rx="2" fill="#9CA3AF"/>
</g>
<g clip-path="url(#clip8_12913_75514)">
<rect x="159" y="204.02" width="71" height="8" rx="2" fill="#9CA3AF"/>
<rect x="240" y="204.02" width="118" height="8" rx="2" fill="#9CA3AF"/>
<rect x="368" y="204.02" width="81" height="8" rx="2" fill="#9CA3AF"/>
</g>
<g clip-path="url(#clip9_12913_75514)">
<rect x="159" y="224.02" width="124" height="8" rx="2" fill="#9CA3AF"/>
<rect x="293" y="224.02" width="50" height="8" rx="2" fill="#9CA3AF"/>
<rect x="353" y="224.02" width="129" height="8" rx="2" fill="#9CA3AF"/>
</g>
<g clip-path="url(#clip10_12913_75514)">
<rect x="159" y="244.02" width="34" height="8" rx="2" fill="#9CA3AF"/>
<rect x="203" y="244.02" width="125" height="8" rx="2" fill="#9CA3AF"/>
<rect x="338" y="244.02" width="135" height="8" rx="2" fill="#9CA3AF"/>
</g>
<path d="M146 333.02H491V354.02C491 358.438 487.418 362.02 483 362.02H146V333.02Z" fill="#F3F4F6"/>
<rect x="319" y="345.02" width="29.5" height="5" rx="1" fill="#9CA3AF"/>
<rect x="362.5" y="345.02" width="29.5" height="5" rx="1" fill="#9CA3AF"/>
<rect x="406" y="345.02" width="29.5" height="5" rx="1" fill="#9CA3AF"/>
<rect x="449.5" y="345.02" width="29.5" height="5" rx="1" fill="#9CA3AF"/>
</g>
<defs>
<filter id="filter0_b_12913_75514" x="-50" y="-49.9805" width="246" height="462" filterUnits="userSpaceOnUse" color-interpolation-filters="sRGB">
<feFlood flood-opacity="0" result="BackgroundImageFix"/>
<feGaussianBlur in="BackgroundImage" stdDeviation="25"/>
<feComposite in2="SourceAlpha" operator="in" result="effect1_backgroundBlur_12913_75514"/>
<feBlend mode="normal" in="SourceGraphic" in2="effect1_backgroundBlur_12913_75514" result="shape"/>
</filter>
<clipPath id="clip0_12913_75514">
<rect y="0.0195312" width="491" height="362" fill="white"/>
</clipPath>
<clipPath id="clip1_12913_75514">
<rect width="321" height="8" fill="white" transform="translate(159 64.0195)"/>
</clipPath>
<clipPath id="clip2_12913_75514">
<rect width="321" height="8" fill="white" transform="translate(159 84.0195)"/>
</clipPath>
<clipPath id="clip3_12913_75514">
<rect width="321" height="8" fill="white" transform="translate(159 104.02)"/>
</clipPath>
<clipPath id="clip4_12913_75514">
<rect width="321" height="8" fill="white" transform="translate(159 124.02)"/>
</clipPath>
<clipPath id="clip5_12913_75514">
<rect width="321" height="8" fill="white" transform="translate(159 144.02)"/>
</clipPath>
<clipPath id="clip6_12913_75514">
<rect width="321" height="8" fill="white" transform="translate(159 164.02)"/>
</clipPath>
<clipPath id="clip7_12913_75514">
<rect width="321" height="8" fill="white" transform="translate(159 184.02)"/>
</clipPath>
<clipPath id="clip8_12913_75514">
<rect width="321" height="8" fill="white" transform="translate(159 204.02)"/>
</clipPath>
<clipPath id="clip9_12913_75514">
<rect width="321" height="8" fill="white" transform="translate(159 224.02)"/>
</clipPath>
<clipPath id="clip10_12913_75514">
<rect width="321" height="8" fill="white" transform="translate(159 244.02)"/>
</clipPath>
</defs>
</svg>
